PathFileType  4	(X/Y/Z) C:\Users\antoi\Documents\MyRepositories\mobilecap\ResultsAnalysis
DataRate	CameraRate	NumFrames	NumMarkers	Units	OrigDataRate	OrigDataStartFrame	OrigNumFrames
100.0	100.0	4	51	mm	100.0	34	133
Frame#	Time	r_knee			r_shank_antsup			r_ankle			r_calc			r_5meta			r_toe			L_knee			L_shank_antsup			L_ankle			L_calc			L_5meta			L_toe			r_sh2			r_sh3			r_sh4			L_sh2			L_sh3			r_thigh1			r_thigh2			r_thigh3			r_thigh4			r_thigh5			L_thigh1			L_thigh2			L_thigh3			L_thigh4			r.ASIS			r.PSIS			L.ASIS			L.PSIS			C7			R_Shoulder			L_Shoulder			R_Sternum			L_Sternum			R_humerus			R_elbow_med			R_elbow_lat			R_forearm			R_wrist_radius			R_wrist_ulna			L_humerus			L_elbow_med			L_elbow_lat			L_forearm			L_wrist_radius			L_wrist_ulna			R_HJC			L_HJC			R_HJC_reg			L_HJC_reg			
		X1	Y1	Z1	X2	Y2	Z2	X3	Y3	Z3	X4	Y4	Z4	X5	Y5	Z5	X6	Y6	Z6	X7	Y7	Z7	X8	Y8	Z8	X9	Y9	Z9	X10	Y10	Z10	X11	Y11	Z11	X12	Y12	Z12	X13	Y13	Z13	X14	Y14	Z14	X15	Y15	Z15	X16	Y16	Z16	X17	Y17	Z17	X18	Y18	Z18	X19	Y19	Z19	X20	Y20	Z20	X21	Y21	Z21	X22	Y22	Z22	X23	Y23	Z23	X24	Y24	Z24	X25	Y25	Z25	X26	Y26	Z26	X27	Y27	Z27	X28	Y28	Z28	X29	Y29	Z29	X30	Y30	Z30	X31	Y31	Z31	X32	Y32	Z32	X33	Y33	Z33	X34	Y34	Z34	X35	Y35	Z35	X36	Y36	Z36	X37	Y37	Z37	X38	Y38	Z38	X39	Y39	Z39	X40	Y40	Z40	X41	Y41	Z41	X42	Y42	Z42	X43	Y43	Z43	X44	Y44	Z44	X45	Y45	Z45	X46	Y46	Z46	X47	Y47	Z47	X48	Y48	Z48	X49	Y49	Z49	X50	Y50	Z50	X51	Y51	Z51	

34	0.33000000	229.19454	489.04370	-47.47633	266.03595	443.09579	-61.86209	175.81842	89.90635	-112.72558	118.20046	60.01394	-166.14211	308.81677	34.65991	-82.08253	346.87399	62.62258	-137.20130	307.49088	513.89837	-336.55374	289.02167	431.04210	-347.14064	37.80578	233.18111	-311.90359	-29.78869	242.25140	-254.85396	79.68551	106.13569	-347.44869	132.01109	90.82105	-302.00857	258.83887	330.99148	-83.87509	199.76823	437.57946	-22.77756	192.29459	322.15941	-30.95309	230.02548	498.70408	-350.56620	145.63797	410.53005	-348.09343	287.89797	791.67595	-92.49337	303.89272	680.73472	-92.34884	297.66740	657.39449	-29.17523	236.62747	781.89078	7.91254	251.56404	669.91461	2.46295	233.52431	822.01342	-345.74249	285.20714	689.97017	-358.32334	129.85148	780.38492	-335.19295	179.58833	654.85375	-322.74568	263.27307	963.11225	-56.85761	65.45462	998.39984	-112.26469	246.98973	948.90995	-289.84061	54.44403	993.68938	-209.96141	135.32810	1468.63818	-182.48470	195.45866	1433.85056	-27.84556	177.32346	1415.69172	-343.93074	240.06740	1364.24710	-171.75382	239.64413	1360.73607	-209.90819	215.96578	1203.00358	64.58598	155.54487	1107.25584	46.92091	195.08148	1114.06063	96.99428	282.00583	997.34838	106.15699	336.57375	909.27834	86.20313	307.07466	898.74457	121.40895	157.26515	1183.93561	-419.33250	113.19796	1079.25238	-368.11884	128.70290	1084.79556	-427.44405	206.08587	962.50088	-449.58919	259.04636	868.74743	-428.37899	223.39201	853.43950	-450.91181	185.71893	881.63108	-79.65104	157.33051	881.19120	-268.19833	192.51825	892.27048	-78.07541	175.24279	884.88071	-231.35132	
35	0.34000000	230.33152	489.28321	-46.10071	266.84639	442.97065	-60.19085	175.68645	90.14449	-112.72142	118.31041	60.17616	-166.21035	308.80029	34.57079	-81.96265	346.81295	62.63036	-136.99004	327.81640	518.39799	-334.00844	312.90640	434.58394	-345.00150	71.95955	223.58845	-311.42258	3.49777	228.16457	-254.58635	121.96441	100.07546	-347.37932	174.89617	87.55314	-301.66284	259.19362	330.93319	-82.46507	200.05369	437.83434	-22.01331	191.87280	322.49028	-30.50645	250.45308	499.08034	-349.37234	170.73168	406.58049	-347.48209	297.23783	790.96477	-90.63812	309.29929	679.16690	-90.46750	302.72770	656.21526	-27.47935	243.85748	782.03770	9.08779	256.52035	669.70273	3.67502	248.40047	825.75693	-344.95717	302.80696	694.82283	-357.18379	145.20936	782.30065	-336.36913	197.41961	657.64137	-323.54699	273.78619	964.09378	-54.96840	76.56282	999.82868	-112.53211	259.79592	950.93143	-288.20470	66.45262	995.35887	-210.32999	147.60539	1470.16422	-182.21270	207.38607	1436.39136	-27.69110	190.15538	1416.70929	-343.45788	252.24118	1366.13561	-170.93978	251.86986	1362.39111	-209.00979	232.55627	1206.75823	65.46680	174.49627	1109.52532	48.42739	214.12132	1117.42128	98.32303	305.73283	1003.96395	105.83369	363.25751	918.61218	85.00599	334.88183	906.55415	120.12825	166.19395	1184.74855	-418.32174	120.68980	1081.42296	-366.41337	135.36922	1086.83561	-425.75151	207.13839	961.51119	-450.14269	255.91940	865.25380	-430.37648	219.52141	851.48657	-452.21786	196.34024	882.79534	-79.00700	169.96727	883.11519	-267.84891	203.18332	893.65543	-77.02945	187.31806	886.64186	-230.50455	
36	0.35000000	231.44133	489.53788	-44.79839	267.65273	442.80472	-58.63529	175.55448	90.37388	-112.77441	118.42215	60.34821	-166.28448	308.82122	34.48088	-81.83059	346.71176	62.59350	-136.80313	347.26305	522.39135	-331.45643	336.05055	437.68801	-342.84705	106.85075	213.33666	-310.84956	37.91018	213.19413	-254.28112	165.15756	93.87137	-346.94593	218.52710	84.38656	-300.93608	259.55458	330.84261	-81.14985	200.38125	438.07546	-21.29920	191.52179	322.81610	-30.10686	270.21444	498.48597	-348.26282	195.69691	401.73234	-346.91332	306.70812	790.18451	-88.64538	314.92302	677.56227	-88.45533	307.63214	654.98722	-25.64514	250.71366	782.08700	10.35702	261.26881	669.39518	4.92930	263.26491	829.15624	-344.16595	320.07603	699.28055	-356.00843	160.46947	784.17685	-337.72781	214.92429	660.26258	-324.40246	284.23577	964.79408	-53.14629	87.65132	1001.00871	-112.90230	272.60054	952.49712	-286.66737	78.49448	996.72802	-210.77871	159.88091	1471.40693	-181.98464	219.30637	1438.60910	-27.55520	203.05186	1417.37735	-343.03293	264.38552	1367.67935	-170.08573	264.12377	1363.71730	-208.07079	249.00826	1210.31446	66.30873	193.31475	1111.63285	49.99294	232.98562	1120.67185	99.65967	329.12250	1010.64992	105.44774	389.56160	928.16807	83.65279	362.42674	914.54469	118.65643	175.16174	1185.30288	-417.37088	128.33505	1083.27698	-364.81368	142.19260	1088.65174	-424.12108	208.25117	960.64447	-450.75351	252.80403	862.06408	-432.53474	215.76590	849.88600	-453.51160	206.90486	883.68842	-78.39564	182.57017	884.65029	-267.50919	213.75598	894.72459	-76.05184	199.37790	888.00313	-229.75893	
37	0.36000000	232.63806	489.77332	-43.62856	268.54678	442.58435	-57.26993	175.45698	90.58126	-112.89105	118.54202	60.51759	-166.37609	308.86769	34.40493	-81.68327	346.59830	62.52064	-136.63812	365.76724	525.81966	-328.96530	358.38949	440.33703	-340.79121	142.53354	202.58271	-310.18580	73.51875	197.57649	-253.93237	209.18799	87.69476	-346.14776	262.81059	81.49763	-299.82896	260.00704	330.71226	-80.00881	200.87083	438.29213	-20.65032	191.36260	323.12492	-29.76310	289.25588	496.95894	-347.18970	220.53692	396.06446	-346.33330	316.27562	789.28751	-86.57931	320.84622	675.92489	-86.36453	312.43766	653.71458	-23.73642	257.31708	782.02761	11.65284	265.85761	668.98174	6.17065	278.09262	832.18799	-343.33552	336.96493	703.25931	-354.78750	175.63941	785.92451	-339.12304	232.05068	662.65149	-325.25913	294.64230	965.18743	-51.39057	98.74078	1001.91699	-113.35112	285.40780	953.65254	-285.21446	90.57725	997.79932	-211.28331	172.16163	1472.35810	-181.78781	231.22040	1440.48787	-27.42853	215.97791	1417.71341	-342.65002	276.50925	1368.86316	-169.21303	276.44250	1364.71597	-207.11788	265.32589	1213.64471	67.09838	211.92957	1113.55089	51.63229	251.67684	1123.78608	101.00902	352.15851	1017.37546	104.99381	415.50441	937.88817	82.10574	389.65855	922.71099	117.02642	184.17086	1185.61080	-416.48453	136.13825	1084.82661	-363.31637	149.21948	1090.20701	-422.58498	209.47971	959.91152	-451.40302	249.78680	859.20111	-434.81617	212.13357	848.70068	-454.78388	217.43712	884.28629	-77.83053	195.15321	885.82501	-267.19240	224.26482	895.46419	-75.15176	211.43351	888.99175	-229.11049	
